# AST/ASF file generated using VICON BodyLanguage
# -----------------------------------------------
:version 1.10
:name VICON
:units
  mass 1.0
  length 0.45
  angle deg
:documentation
   .ast/.asf automatically generated from VICON data using
   VICON BodyBuilder and BodyLanguage model FoxedUp or BRILLIANT.MOD
:root
   order TX TY TZ RX RY RZ
   axis XYZ
   position 0 0 0  
   orientation 0 0 0 
:bonedata
  begin
     id 1 
     name lhipjoint
     direction 0.70531 -0.63749 0.310071 
     length 2.59589 
     axis 0 0 0  XYZ
  end
  begin
     id 2 
     name lfemur
     direction 0.34202 -0.939693 0  
     length 6.19797  
     axis 0 0 20  XYZ
    dof rx ry rz
    limits (-160.0 20.0)
           (-70.0 70.0)
           (-60.0 70.0)
  end
  begin
     id 3 
     name ltibia
     direction 0.34202 -0.939693 0   
     length 7.80054   
     axis 0 0 20   XYZ
    dof rx
    limits (-10.0 170.0)
  end
  begin
     id 4 
     name lfoot
     direction 0.0828572 -0.227648 0.970212   
     length 1.88124   
     axis -90 7.62852e-016 20   XYZ
    dof rx rz
    limits (-45.0 90.0)
           (-70.0 20.0)
  end
  begin
     id 5 
     name ltoes
     direction 1.53544e-011 -4.219e-011 1   
     length 0.948015   
     axis -90 7.62852e-016 20   XYZ
    dof rx
    limits (-90.0 20.0)
  end
  begin
     id 6 
     name rhipjoint
     direction -0.730062 -0.614543 0.29891   
     length 2.69282  
     axis 0 0 0  XYZ 
  end
  begin
     id 7 
     name rfemur
     direction -0.34202 -0.939693 0   
     length 5.86298   
     axis 0 0 -20   XYZ
    dof rx ry rz
    limits (-160.0 20.0)
           (-70.0 70.0)
           (-70.0 60.0)
  end
  begin
     id 8 
     name rtibia
     direction -0.34202 -0.939693 0   
     length 7.72374   
     axis 0 0 -20   XYZ
    dof rx
    limits (-10.0 170.0)
 end
 begin
     id 9 
     name rfoot
     direction -0.0967421 -0.265797 0.959163   
     length 2.02368  
     axis -90 -7.62852e-016 -20   XYZ
    dof rx rz
    limits (-45.0 90.0)
           (-20.0 70.0)
  end
  begin
     id 10 
     name rtoes
     direction -1.53524e-011 -4.21768e-011 1   
     length 1.01373   
     axis -90 -7.62852e-016 -20   XYZ
    dof rx
    limits (-90.0 20.0)
  end
  begin
     id 11 
     name lowerback
     direction 0.00561702 0.992801 -0.119643   
     length 2.02816   
     axis 0 0 0   XYZ
    dof rx ry rz
    limits (-20.0 45.0)
           (-30.0 30.0)
           (-30.0 30.0)
  end
  begin
     id 12 
     name upperback
     direction 0.00155544 0.995735 -0.0922509   
     length 2.02265   
     axis 0 0 0   XYZ
    dof rx ry rz
    limits (-20.0 45.0)
           (-30.0 30.0)
           (-30.0 30.0)
  end
  begin
     id 13 
     name thorax
     direction -0.000937535 0.999317 -0.0369292   
     length 2.04823   
     axis 0 0 0   XYZ
    dof rx ry rz
    limits (-20.0 45.0)
           (-30.0 30.0)
           (-30.0 30.0)
  end
  begin
     id 14 
     name lowerneck
     direction -0.0813151 0.981659 0.172436   
     length 1.8875   
     axis 0 0 0   XYZ
    dof rx ry rz
    limits (-20.0 45.0)
           (-30.0 30.0)
           (-30.0 30.0)
  end
  begin
     id 15 
     name upperneck
     direction 0.119359 0.955672 -0.269157   
     length 1.92801   
     axis 0 0 0   XYZ
    dof rx ry rz
    limits (-20.0 45.0)
           (-30.0 30.0)
           (-30.0 30.0)
  end
  begin
     id 16
     name head
     direction 0.0421007 0.992672 -0.113268  
     length 1.95809  
     axis 0 0 0   XYZ
    dof rx ry rz
    limits (-20.0 45.0)
           (-30.0 30.0)
           (-30.0 30.0)
  end
  begin
     id 17 
     name lclavicle
     direction 0.944093 0.32865 -0.0260136  
     length 3.84992  
     axis 0 0 0   XYZ
    dof ry rz
    limits (-20.0 10.0)
           (0.0 20.0)
  end
  begin
     id 18 
     name lhumerus
     direction 1 -4.48979e-011 -1.27712e-029   
     length 5.53593   
     axis 180 -30 -90   XYZ
    dof rx ry rz
    limits (-60.0 90.0)
           (-90.0 90.0)
           (-90.0 90.0)
  end
  begin
     id 19
     name lradius
     direction 1 -4.48966e-011 1.00051e-028   
     length 3.13345   
     axis 180 -30 -90   XYZ
    dof rx
    limits (-10.0 170.0)
  end
  begin
     id 20
     name lwrist
     direction 1 -4.4896e-011 2.56952e-028   
     length 1.56673   
     axis -5.12785e-016 90 90   XYZ
    dof ry
    limits (-180.0 0.0)
 end
  begin
     id 21 
     name lhand
     direction 1 -4.48934e-011 5.13905e-028   
     length 0.713374   
     axis -3.27915e-016 90 90   XYZ
    dof rx rz
    limits (-90.0 90.0)
           (-45.0 45.0)
  end
  begin
     id 22 
     name lfingers
     direction 1 -4.48973e-011 1.02781e-027   
     length 0.575141   
     axis -6.5583e-016 90 90   XYZ
    dof rx
    limits (0.0 90.0)
  end
  begin
     id 23
     name lthumb
     direction 0.707107 -6.34883e-011 0.707107   
     length 0.82579   
     axis -90 45 2.85299e-015   XYZ
    dof rx rz
    limits (-45.0 45.0)
           (-45.0 45.0)
  end
  begin
     id 24 
     name rclavicle
     direction -0.936895 0.34884 0.0232243   
     length 3.53304  
     axis 0 0 0   XYZ 
    dof ry rz
    limits (-10.0 20.0)
           (-20.0 0.0)
  end
  begin
     id 25 
     name rhumerus
     direction -1 -4.48965e-011 1.05514e-027  
     length 5.4685   
     axis 180 30 90   XYZ
    dof rx ry rz
    limits (-90.0 60.0)
           (-90.0 90.0)
           (-90.0 90.0)
  end
  begin
     id 26 
     name rradius
     direction -1 -4.48964e-011 -1.1079e-027   
     length 3.22411   
     axis 180 30 90   XYZ
    dof rx
    limits (-10.0 170.0)
  end
  begin
     id 27 
     name rwrist
     direction -1 -4.48973e-011 2.56952e-028   
     length 1.61206   
     axis -5.12785e-016 -90 -90   XYZ
    dof ry
    limits (-180.0 0.0)
  end
  begin
     id 28
     name rhand
     direction -1 -4.48957e-011 5.13905e-028   
     length 0.74528   
     axis -3.27915e-016 -90 -90   XYZ
    dof rx rz
    limits (-90.0 90.0)
           (-45.0 45.0)
  end
  begin
     id 29
     name rfingers
     direction -1 -4.4901e-011 1.02781e-027   
     length 0.600864   
     axis -6.5583e-016 -90 -90   XYZ
    dof rx
    limits (0.0 90.0)
  end
  begin
     id 30
     name rthumb
     direction -0.707107 -6.34972e-011 0.707107   
     length 0.862724   
     axis -90 -45 -2.85299e-015   XYZ
    dof rx rz
    limits (-45.0 45.0)
           (-45.0 45.0)
  end
:hierarchy
  begin
    root lhipjoint rhipjoint lowerback
    lhipjoint lfemur
    lfemur ltibia
    ltibia lfoot
    lfoot ltoes
    rhipjoint rfemur
    rfemur rtibia
    rtibia rfoot
    rfoot rtoes
    lowerback upperback
    upperback thorax
    thorax lowerneck lclavicle rclavicle
    lowerneck upperneck
    upperneck head
    lclavicle lhumerus
    lhumerus lradius
    lradius lwrist
    lwrist lhand lthumb
    lhand lfingers
    rclavicle rhumerus
    rhumerus rradius
    rradius rwrist
    rwrist rhand rthumb
    rhand rfingers
  end

#!OML:ASF G:\Work\Work\Patient Classification 1\Liu\Session 1\Liu.ASF
:FULLY-SPECIFIED
:DEGREES
321
root 9.71745 16.7923 12.0463 2.12826 -7.34287 3.78465
lowerback 0.758284 2.10364 -1.73422
upperback 0.992773 2.80697 -1.98554
thorax 0.608578 1.39915 -1.06818
lowerneck -19.2598 -4.37941 -10.4283
upperneck 23.281 -5.28429 8.78198
head 11.2711 -2.25893 4.16355
rclavicle 3.78933e-015 6.4605e-015
rhumerus -38.2978 14.3876 -88.7118
rradius 42.7085
rwrist -10.8277
rhand -16.4104 19.3619
rfingers 7.12502
rthumb 9.80423 -10.3898
lclavicle 3.78933e-015 6.4605e-015
lhumerus -40.3376 -1.15097 84.0283
lradius 21.7542
lwrist -11.6318
lhand -10.0907 33.3961
lfingers 7.12502
lthumb 15.8963 62.7637
rfemur -8.01904 -3.65532 13.5628
rtibia 64.7299
rfoot 17.0841 -9.67745
rtoes -12.1475
lfemur -27.6414 0.573418 -30.3214
ltibia 36.1879
lfoot -11.9448 3.77987
ltoes -5.55363
322
root 9.72361 16.8289 12.2309 2.21406 -7.31042 3.49604
lowerback 0.66393 1.99342 -1.363
upperback 1.08307 2.66595 -1.9172
thorax 0.76655 1.33057 -1.19908
lowerneck -17.9542 -4.33276 -11.1184
upperneck 21.9785 -5.30264 9.68761
head 10.5874 -2.24611 4.58552
rclavicle -4.03781e-015 8.34896e-015
rhumerus -38.0318 14.2445 -88.799
rradius 42.3654
rwrist -10.8923
rhand -16.0527 19.1195
rfingers 7.12502
rthumb 10.1493 -10.6157
lclavicle -4.03781e-015 8.34896e-015
lhumerus -39.5516 -2.28754 84.5382
lradius 21.7561
lwrist -10.2737
lhand -9.98212 33.8891
lfingers 7.12502
lthumb 16.0009 63.2483
rfemur -10.3331 -3.80021 14.099
rtibia 66.8584
rfoot 15.6141 -10.1217
rtoes -14.8558
lfemur -26.7339 0.569954 -30.1115
ltibia 35.7763
lfoot -12.2887 3.60306
ltoes -7.37302
323
root 9.7271 16.8588 12.408 2.19586 -7.15532 3.31344
lowerback 0.792734 1.83857 -1.18123
upperback 1.07903 2.45592 -1.80459
thorax 0.69043 1.22665 -1.18996
lowerneck -18.55 -4.06537 -10.5144
upperneck 22.0332 -4.84849 8.93769
head 10.6286 -2.05944 4.27252
rclavicle 3.5129e-014 4.96962e-016
rhumerus -38.1095 14.199 -88.8727
rradius 42.2004
rwrist -10.8302
rhand -15.8463 19.0969
rfingers 7.12502
rthumb 10.3485 -10.6285
lclavicle 3.5129e-014 4.96962e-016
lhumerus -38.9538 -2.85468 84.8177
lradius 21.744
lwrist -9.59744
lhand -9.93599 33.9649
lfingers 7.12502
lthumb 16.0453 63.3205
rfemur -12.2742 -4.08302 14.5465
rtibia 68.7073
rfoot 14.315 -11.0435
rtoes -13.093
lfemur -25.7713 0.399921 -29.9998
ltibia 35.3584
lfoot -12.7715 3.43484
ltoes -7.56357
324
root 9.73256 16.8864 12.5823 2.19083 -6.79032 3.15561
lowerback 0.913924 1.62918 -0.988335
upperback 1.06007 2.17388 -1.69766
thorax 0.602501 1.08673 -1.19197
lowerneck -17.8606 -4.14209 -10.6143
upperneck 21.7033 -4.92719 8.73614
head 10.3841 -2.1415 4.19664
rclavicle 1.58966e-014 -2.11706e-014
rhumerus -38.2019 14.2629 -88.967
rradius 41.9888
rwrist -10.6614
rhand -16.0191 18.9826
rfingers 7.12502
rthumb 10.1818 -10.751
lclavicle 1.58966e-014 -2.11706e-014
lhumerus -38.3872 -2.88577 84.8074
lradius 21.7268
lwrist -9.78558
lhand -9.97148 33.8834
lfingers 7.12502
lthumb 16.0111 63.2418
rfemur -13.8439 -4.44072 14.9386
rtibia 70.1887
rfoot 12.1362 -13.0272
rtoes -6.60241
lfemur -24.7715 -0.0573992 -29.9046
ltibia 34.8678
lfoot -13.2357 3.32573
ltoes -6.85364
325
root 9.73921 16.9207 12.7633 2.19422 -6.42351 3.00153
lowerback 0.893739 1.4228 -0.741663
upperback 1.10264 1.90082 -1.63079
thorax 0.659315 0.951731 -1.25926
lowerneck -19.0453 -4.15699 -9.80623
upperneck 22.7689 -4.84292 7.63532
head 10.9394 -2.14398 3.68588
rclavicle -2.44629e-014 -1.4561e-014
rhumerus -38.194 14.2675 -89.0833
rradius 41.7842
rwrist -10.551
rhand -16.0478 18.4477
rfingers 7.12502
rthumb 10.154 -11.2872
lclavicle -2.44629e-014 -1.4561e-014
lhumerus -37.7867 -3.11268 84.8135
lradius 21.7574
lwrist -9.83751
lhand -10.6092 33.5768
lfingers 7.12502
lthumb 15.397 62.9834
rfemur -15.4012 -4.6867 15.3429
rtibia 71.3341
rfoot 8.61537 -14.2521
rtoes -5.52625
lfemur -23.7005 -0.512425 -29.8197
ltibia 34.2961
lfoot -13.5931 3.35149
ltoes -7.10457
326
root 9.74488 16.9501 12.9484 2.09918 -5.99976 3.21333
lowerback 0.893139 1.21543 -0.890892
upperback 1.08931 1.62342 -1.62973
thorax 0.637173 0.811878 -1.17411
lowerneck -17.198 -3.99228 -10.9713
upperneck 21.4133 -4.7655 9.12576
head 10.1549 -2.06645 4.41897
rclavicle -2.842e-015 -1.5207e-014
rhumerus -38.4616 14.2408 -89.2023
rradius 41.5835
rwrist -10.4811
rhand -16.1679 18.5598
rfingers 7.12502
rthumb 10.0381 -11.1808
lclavicle -2.842e-015 -1.5207e-014
lhumerus -37.3101 -3.37386 84.8632
lradius 21.8965
lwrist -9.7754
lhand -11.5464 32.6778
lfingers 7.12502
lthumb 14.4941 62.1516
rfemur -16.8748 -5.03257 15.2971
rtibia 72.2551
rfoot 5.76524 -14.5662
rtoes -7.2344
lfemur -22.4493 -0.999862 -30.1404
ltibia 33.6289
lfoot -13.9706 3.3741
ltoes -7.69707
327
root 9.74721 16.9753 13.1312 2.05765 -5.44533 3.54076
lowerback 0.80224 0.980555 -1.24472
upperback 1.13618 1.31184 -1.62739
thorax 0.723779 0.653185 -0.970495
lowerneck -16.679 -3.84467 -11.1936
upperneck 20.8706 -4.59189 9.42198
head 9.85599 -1.98021 4.57647
rclavicle -1.49244e-015 1.13307e-014
rhumerus -38.6335 14.1991 -89.2218
rradius 41.502
rwrist -10.2557
rhand -16.4222 19.1719
rfingers 7.12502
rthumb 9.79284 -10.5804
lclavicle -1.49244e-015 1.13307e-014
lhumerus -36.6886 -3.52274 84.8953
lradius 22.1897
lwrist -9.69318
lhand -11.8339 32.2958
lfingers 7.12502
lthumb 14.217 61.7892
rfemur -18.3879 -5.53462 15.1303
rtibia 72.9676
rfoot 4.0439 -14.976
rtoes -7.04335
lfemur -21.1726 -1.58989 -30.5765
ltibia 32.8611
lfoot -14.3427 3.24226
ltoes -7.25421
